HIERARCHY
ROOT Hips
{
 OFFSET 0.000000 0.000000 0.000000
 CHANNELS 6 Xposition Yposition Zposition Yrotation Xrotation Zrotation
 JOINT Chest
 {
  OFFSET 0.000000 9.585900 0.002600
  CHANNELS 3 Yrotation Xrotation Zrotation
  JOINT Chest2
  {
   OFFSET 0.000000 9.601200 -0.005300
   CHANNELS 3 Yrotation Xrotation Zrotation
   JOINT Chest3
   {
    OFFSET 0.000000 9.561800 0.000000
    CHANNELS 3 Yrotation Xrotation Zrotation
    JOINT Chest4
    {
     OFFSET 0.000000 9.552100 0.000000
     CHANNELS 3 Yrotation Xrotation Zrotation
     JOINT Neck
     {
      OFFSET 0.000000 14.453000 0.000000
      CHANNELS 3 Yrotation Xrotation Zrotation
      JOINT Head
      {
       OFFSET 0.000000 8.936500 -0.011300
       CHANNELS 3 Yrotation Xrotation Zrotation
       End Site
       {
        OFFSET 0.000000 17.073600 -0.006000
       }
      }
     }
     JOINT RightCollar
     {
      OFFSET -2.921100 9.558500 0.000000
      CHANNELS 3 Yrotation Xrotation Zrotation
      JOINT RightShoulder
      {
       OFFSET -13.519700 0.000000 0.000000
       CHANNELS 3 Yrotation Xrotation Zrotation
       JOINT RightElbow
       {
        OFFSET 0.000000 -29.696600 0.000000
        CHANNELS 3 Yrotation Xrotation Zrotation
        JOINT RightWrist
        {
         OFFSET 0.000000 -24.004700 0.000000
         CHANNELS 3 Yrotation Xrotation Zrotation
         End Site
         {
          OFFSET 0.000000 -17.728500 0.000000
         }
        }
       }
      }
     }
     JOINT LeftCollar
     {
      OFFSET 2.921100 9.558500 0.000000
      CHANNELS 3 Yrotation Xrotation Zrotation
      JOINT LeftShoulder
      {
       OFFSET 13.519700 0.000000 0.000000
       CHANNELS 3 Yrotation Xrotation Zrotation
       JOINT LeftElbow
       {
        OFFSET 0.000000 -29.696600 0.000000
        CHANNELS 3 Yrotation Xrotation Zrotation
        JOINT LeftWrist
        {
         OFFSET 0.000000 -24.004700 0.000000
         CHANNELS 3 Yrotation Xrotation Zrotation
         End Site
         {
          OFFSET 0.000000 -17.728500 0.000000
         }
        }
       }
      }
     }
    }
   }
  }
 }
 JOINT RightHip
 {
  OFFSET -7.771700 -0.012900 -0.001300
  CHANNELS 3 Yrotation Xrotation Zrotation
  JOINT RightKnee
  {
   OFFSET 0.000000 -40.869800 0.001200
   CHANNELS 3 Yrotation Xrotation Zrotation
   JOINT RightAnkle
   {
    OFFSET 0.000000 -39.717900 0.002100
    CHANNELS 3 Yrotation Xrotation Zrotation
    JOINT RightToe
    {
     OFFSET 0.000000 -4.965400 11.033500
     CHANNELS 3 Yrotation Xrotation Zrotation
     End Site
     {
      OFFSET 0.000000 -1.423100 5.872300
     }
    }
   }
  }
 }
 JOINT LeftHip
 {
  OFFSET 7.771700 -0.012900 -0.001300
  CHANNELS 3 Yrotation Xrotation Zrotation
  JOINT LeftKnee
  {
   OFFSET 0.000000 -40.869800 0.001200
   CHANNELS 3 Yrotation Xrotation Zrotation
   JOINT LeftAnkle
   {
    OFFSET 0.000000 -39.717900 0.002100
    CHANNELS 3 Yrotation Xrotation Zrotation
    JOINT LeftToe
    {
     OFFSET 0.000000 -4.965400 11.033500
     CHANNELS 3 Yrotation Xrotation Zrotation
     End Site
     {
      OFFSET 0.000000 -1.423100 5.872300
     }
    }
   }
  }
 }
}
MOTION
Frames: 13
Frame Time: 0.008333
-16.850853 57.710335 81.153267 179.839866 -35.118055 -0.783411 3.449794 22.241807 4.065689 0.304819 3.059311 0.336974 0.517972 4.925691 0.516321 2.211307 18.630970 2.395033 -4.004825 17.046859 0.906585 -7.716484 -4.019076 2.981170 3.427966 -1.562669 -1.880318 21.491237 -25.316190 -22.010720 138.120366 -78.156258 -92.389812 20.041680 -21.058166 -50.836431 -6.772759 -3.720204 -2.227544 -3.561003 -10.078125 -2.106015 36.599659 -30.910992 -74.642667 6.991856 -11.535194 24.798656 13.037271 -35.993831 -8.794909 -2.836380 66.801967 -0.838107 6.429134 6.925821 8.821471 -0.021476 0.021266 -0.011627 -10.140947 -41.462762 3.834703 27.369218 66.665470 25.445322 -12.452603 21.268541 -4.658170 -0.830942 -10.189606 -1.637948
-16.855898 57.714664 81.147099 179.853396 -35.092700 -0.785424 3.420341 22.255577 4.081872 0.303979 3.058443 0.340478 0.518042 4.930371 0.520398 2.207778 18.611320 2.382882 -3.990236 16.924896 0.870898 -7.691824 -4.273635 2.856920 3.429405 -1.583241 -1.870021 21.544040 -25.289713 -22.012381 138.364040 -78.093716 -92.756289 19.888516 -21.014472 -50.622533 -6.879269 -3.695753 -2.232700 -3.465008 -10.110858 -2.048647 36.619650 -31.157331 -74.592477 6.940654 -11.429335 24.668034 13.022224 -36.016023 -8.803004 -2.845673 66.800023 -0.848398 6.422486 6.933585 8.814613 -0.021240 0.021700 -0.011855 -10.126637 -41.481781 3.814207 27.351396 66.669367 25.439448 -12.463470 21.264166 -4.662579 -0.813204 -10.235795 -1.631976
-16.864356 57.717189 81.142977 179.840690 -35.045640 -0.751251 3.402680 22.244959 4.073612 0.303009 3.055883 0.343984 0.516753 4.936156 0.527254 2.208181 18.608668 2.405276 -3.985741 16.785978 0.796785 -7.660108 -4.508888 2.725904 3.430649 -1.619334 -1.886843 21.598331 -25.255673 -22.015529 138.589862 -78.018736 -93.125180 19.734269 -20.994637 -50.409292 -6.995490 -3.679040 -2.266667 -3.349948 -10.165161 -2.030673 36.626670 -31.511514 -74.483888 6.862574 -11.266427 24.528485 13.037138 -36.063278 -8.841616 -2.830064 66.803393 -0.846860 6.426708 6.941458 8.809497 -0.019346 0.021137 -0.008362 -10.037078 -41.518203 3.737626 27.306939 66.657839 25.438486 -12.471757 21.241300 -4.669538 -0.799005 -10.259252 -1.625063
-16.868851 57.714860 81.145572 179.829823 -34.943523 -0.741756 3.392053 22.173990 4.087322 0.301731 3.051840 0.347273 0.513739 4.935951 0.533486 2.205712 18.600038 2.427303 -3.989195 16.715174 0.723900 -7.607360 -4.779375 2.585672 3.433898 -1.644186 -1.904493 21.635241 -25.220630 -22.035550 138.909207 -77.941102 -93.595975 19.588625 -20.972753 -50.207446 -7.112486 -3.633381 -2.299041 -3.229083 -10.234043 -2.013864 36.652060 -31.988586 -74.344578 6.743442 -11.036110 24.394522 13.033845 -36.172797 -8.857450 -2.808948 66.798546 -0.847102 6.420811 6.957607 8.802796 -0.008780 0.023274 -0.004933 -10.025056 -41.615505 3.740785 27.300672 66.656074 25.443657 -12.486459 21.227432 -4.678243 -0.782063 -10.287314 -1.620091
-16.872037 57.717290 81.141027 179.829057 -34.887959 -0.746085 3.376619 22.144698 4.112737 0.300302 3.046665 0.350408 0.514294 4.936413 0.538471 2.202097 18.588355 2.448902 -3.992664 16.652495 0.651478 -7.547265 -5.036270 2.435635 3.445989 -1.664426 -1.915347 21.660089 -25.180920 -22.055408 139.169627 -77.841327 -94.023971 19.419519 -20.993555 -50.062391 -7.227910 -3.575365 -2.328146 -3.085495 -10.346651 -1.901353 36.713940 -32.556237 -74.229334 6.563389 -10.745028 24.319646 13.026434 -36.229834 -8.857914 -2.808591 66.795166 -0.852210 6.413661 6.970108 8.793597 -0.020976 0.026067 -0.002995 -10.019734 -41.665204 3.742005 27.312868 66.660999 25.469281 -12.501391 21.210669 -4.688753 -0.769085 -10.303362 -1.612661
-16.880803 57.720362 81.135034 179.823881 -34.838017 -0.715252 3.352676 22.118818 4.104092 0.298736 3.040406 0.353421 0.495071 4.936171 0.582518 2.198941 18.572958 2.425086 -3.956807 16.466995 0.559648 -7.515400 -5.143322 2.286637 3.452858 -1.711383 -1.874505 21.668615 -25.091779 -21.995920 139.097332 -77.667292 -94.092735 19.264274 -21.033803 -49.996587 -7.327387 -3.512057 -2.354803 -2.943197 -10.492277 -1.837114 36.758269 -33.372338 -73.998297 6.333908 -10.398624 24.356820 13.046452 -36.276930 -8.903124 -2.775588 66.801835 -0.828212 6.405246 6.972380 8.787632 -0.021663 0.022881 0.000722 -9.940366 -41.707490 3.654097 27.297679 66.650277 25.503694 -12.483803 21.185302 -4.686064 -0.777359 -10.306287 -1.612458
-16.885333 57.722985 81.129363 179.832592 -34.782396 -0.718530 3.334917 22.078176 4.117779 0.296596 3.035949 0.362887 0.495221 4.927871 0.569569 2.189162 18.559316 2.470443 -3.927162 16.342727 0.461290 -7.465386 -5.287182 2.130098 3.460741 -1.727476 -1.896497 21.624311 -25.055493 -21.906409 139.113678 -77.538495 -94.239933 19.115606 -21.089765 -49.979781 -7.407003 -3.454053 -2.385381 -2.812076 -10.667263 -1.801984 36.812651 -34.464858 -73.681823 6.087808 -10.003430 24.536758 13.029029 -36.331580 -8.909314 -2.696477 66.800894 -0.766831 6.380457 6.975153 8.780502 -0.017663 0.026124 0.002794 -9.946863 -41.758847 3.654347 27.282516 66.662635 25.492290 -12.474904 21.173400 -4.688002 -0.769968 -10.370724 -1.605968
-16.890481 57.728011 81.119707 179.826557 -34.753354 -0.710170 3.335240 22.053839 4.117060 0.295541 3.034251 0.386017 0.491492 4.924794 0.557021 2.186401 18.538933 2.508274 -3.900268 16.255069 0.368789 -7.404016 -5.438164 1.967621 3.458276 -1.739162 -1.908665 21.561860 -25.025323 -21.825894 139.155336 -77.461053 -94.409166 18.980218 -21.147703 -50.005861 -7.463018 -3.408635 -2.414527 -2.706583 -10.886351 -1.760466 36.901458 -35.783117 -73.315502 5.849147 -9.597424 24.865247 13.030216 -36.356870 -8.913977 -2.680786 66.801403 -0.762071 6.375757 6.972137 8.779122 -0.015641 0.030339 0.001886 -9.910628 -41.777476 3.613713 27.317881 66.660291 25.559538 -12.481575 21.131097 -4.695196 -0.772085 -10.381127 -1.603036
-16.900874 57.732070 81.110737 179.847927 -34.717033 -0.685727 3.297806 22.030916 4.100730 0.301034 3.017773 0.389303 0.484057 4.921771 0.560786 2.203847 18.482101 2.564249 -3.899804 16.211266 0.237828 -7.339252 -5.564181 1.798900 3.431595 -1.708745 -1.945335 21.478941 -24.996930 -21.736026 139.173257 -77.411672 -94.536545 18.876202 -21.181500 -50.063083 -7.503489 -3.345041 -2.495537 -2.630460 -11.163163 -1.698076 37.035515 -37.248449 -72.930840 5.629581 -9.233952 25.319574 13.039011 -36.385571 -8.968377 -2.658861 66.814239 -0.747777 6.374321 6.965790 8.778821 -0.014690 0.029925 0.001882 -9.866560 -41.806393 3.530260 27.326843 66.644578 25.597368 -12.487964 21.116688 -4.701214 -0.770351 -10.403503 -1.598552
-16.914545 57.736168 81.100955 179.838484 -34.685926 -0.622334 3.285148 22.006164 4.066810 0.302718 3.001380 0.390115 0.481729 4.916326 0.565548 2.219618 18.436847 2.591112 -3.887612 16.171522 0.133483 -7.269753 -5.662765 1.623659 3.404275 -1.687048 -1.951246 21.378239 -24.964325 -21.641516 139.165572 -77.361966 -94.619957 18.815674 -21.193377 -50.156719 -7.579451 -3.259541 -2.524118 -2.504821 -11.554322 -1.648801 37.223602 -38.771195 -72.551857 5.414994 -8.943827 25.855319 13.081502 -36.411603 -9.046855 -2.639772 66.834886 -0.738545 6.362888 6.959241 8.775299 -0.014708 0.030583 0.001405 -9.735239 -41.826519 3.371115 27.362950 66.613667 25.695449 -12.466414 21.069040 -4.682999 -0.796438 -10.395861 -1.606655
-16.918645 57.741746 81.088629 179.811515 -34.674222 -0.602556 3.307378 21.988401 4.089481 0.310570 2.991051 0.392845 0.475781 4.901562 0.567932 2.237396 18.409922 2.608220 -3.863005 16.136520 0.038333 -7.191862 -5.734786 1.440447 3.385911 -1.677113 -1.946346 21.261906 -24.925566 -21.545178 139.080386 -77.290845 -94.616335 18.784605 -21.207500 -50.298009 -7.634489 -3.213879 -2.522511 -2.369736 -12.003640 -1.612379 37.480764 -40.271627 -72.210152 5.202317 -8.738214 26.405248 13.091719 -36.427817 -9.046638 -2.639584 66.842950 -0.747264 6.373845 6.975503 8.769711 -0.013407 0.015508 0.001331 -9.674435 -41.829304 3.327174 27.406148 66.624287 25.760685 -12.433634 21.013741 -4.654336 -0.823384 -10.397123 -1.613327
-16.922283 57.744705 81.079511 179.811619 -34.640243 -0.595577 3.330419 21.938984 4.147590 0.288729 2.996820 0.350467 0.484042 4.879516 0.585727 2.254444 18.381323 2.625335 -3.834133 16.115783 -0.060327 -7.104144 -5.780550 1.248289 3.373710 -1.672722 -1.942867 21.132518 -24.880051 -21.448423 138.891493 -77.218085 -94.495617 18.731032 -21.249362 -50.444757 -7.657218 -3.190691 -2.545187 -2.245648 -12.516021 -1.546429 37.849146 -41.679546 -71.978580 5.007536 -8.624707 26.892167 13.083613 -36.464476 -9.052797 -2.618803 66.850740 -0.740287 6.374313 6.982399 8.765182 -0.016708 0.011055 0.001929 -9.656183 -41.858943 3.305288 27.455203 66.626233 25.819930 -12.447357 20.990268 -4.656389 -0.819207 -10.411082 -1.608786
-16.926607 57.745004 81.073866 179.803324 -34.583777 -0.572937 3.342070 21.876486 4.152521 0.282461 2.993809 0.343434 0.495425 4.854679 0.604061 2.274503 18.360272 2.642889 -3.801226 16.108009 -0.162597 -7.006993 -5.802418 1.047191 3.367765 -1.679623 -1.941228 21.042227 -24.817898 -21.403228 138.689673 -77.231465 -94.385521 18.607968 -21.332028 -50.489968 -7.676172 -3.192679 -2.567322 -2.098823 -13.087128 -1.472595 38.392048 -42.943577 -71.938395 4.769174 -8.565713 27.345156 13.095524 -36.526187 -9.079193 -2.601778 66.861369 -0.739139 6.376409 6.991335 8.763076 -0.018019 0.008140 0.002699 -9.625388 -41.912775 3.275614 27.491295 66.625523 25.865001 -12.461573 20.969395 -4.661345 -0.813865 -10.409698 -1.601637
